<svg class="svg-icon" style="width: 1em; height: 1em;vertical-align: middle;fill: currentColor;overflow: hidden;" viewBox="0 0 1024 1024" version="1.1" xmlns="http://www.w3.org/2000/svg"><path d="M999.2 875.085714H24.228571c-13.257143 0-24-10.742857-24-24V172.571429c0-13.257143 10.742857-24 24-24h974.971429c13.257143 0 24 10.742857 24 24v46.857142c0 12.571429-10.285714 22.857143-22.857143 22.857143s-22.857143-10.285714-22.857143-22.857143v-25.142857H45.942857v635.2h931.542857v-512c0-12.571429 10.285714-22.857143 22.857143-22.857143s22.857143 10.285714 22.857143 22.857143v533.6c0 13.257143-10.742857 24-24 24z"  /><path d="M511.771429 534.4c-4.685714 0-9.257143-1.371429-13.371429-4L133.6 287.2c-10.514286-6.971429-13.371429-21.142857-6.285714-31.657143 6.971429-10.514286 21.142857-13.371429 31.657143-6.285714l352.685714 235.2L865.142857 249.142857c10.514286-6.971429 24.685714-4.114286 31.657143 6.4 6.971429 10.514286 4.114286 24.685714-6.4 31.657143L525.028571 530.4c-4 2.742857-8.685714 4-13.257142 4z"  /></svg>